<?xml version="1.0" encoding="UTF-8"?> <svg xmlns="http://www.w3.org/2000/svg" viewBox="0 0 41.21 41.83"><defs><style>.cls-1{fill:#fee9aa;}.cls-2{fill:none;stroke:#000;stroke-linecap:round;stroke-linejoin:round;stroke-width:0.69px;}.cls-3{fill:#fff;}</style></defs><title>corn</title><g id="pop_up_dish" data-name="pop up dish"><path class="cls-1" d="M11.81,10s2.94-2.94,5.4-2.23S19.92,10,19.92,10v5.17s-4.47,1.77-5.88.71S11.57,11.17,11.81,10Z"></path><path class="cls-1" d="M8.68,25.19s-2-3.64-.63-5.82,2.9-2,2.9-2l5,1.45s.45,4.79-1,5.84S9.74,25.75,8.68,25.19Z"></path><path class="cls-1" d="M23,25.93s-4.15.31-5.56-1.84-.59-3.45-.59-3.45l3.37-3.93s4.54,1.58,4.91,3.3S24,25.19,23,25.93Z"></path><path class="cls-1" d="M28.34,33.86s-4.14.31-5.56-1.83-.59-3.46-.59-3.46l3.37-3.92s4.54,1.57,4.92,3.3S29.28,33.12,28.34,33.86Z"></path><path class="cls-1" d="M24,8.43s4.14.26,5.24,2.58.11,3.51.11,3.51l-3.88,3.41S21.21,15.74,21.08,14,23,9,24,8.43Z"></path><path class="cls-1" d="M34.63,18.59s.89,4.06-1,5.76-3.34,1.07-3.34,1.07L25.9,22.64s.92-4.72,2.57-5.33S33.76,17.76,34.63,18.59Z"></path><path class="cls-2" d="M11.07,9.43S14,6.49,16.48,7.19s2.7,2.24,2.7,2.24V14.6s-4.47,1.76-5.88.7S10.83,10.6,11.07,9.43Z"></path><path class="cls-2" d="M7.94,24.62s-2-3.64-.63-5.81,2.9-2,2.9-2l5,1.45s.44,4.78-1,5.84S9,25.18,7.94,24.62Z"></path><path class="cls-2" d="M22.3,25.36s-4.15.31-5.56-1.83-.59-3.46-.59-3.46l3.37-3.92s4.54,1.57,4.92,3.3S23.24,24.62,22.3,25.36Z"></path><path class="cls-2" d="M27.6,33.29s-4.14.31-5.56-1.83S21.45,28,21.45,28l3.37-3.92s4.54,1.58,4.92,3.3S28.55,32.55,27.6,33.29Z"></path><path class="cls-2" d="M23.28,7.86s4.14.27,5.24,2.59.11,3.5.11,3.5l-3.88,3.42s-4.28-2.19-4.41-4S22.24,8.46,23.28,7.86Z"></path><path class="cls-2" d="M33.89,18s.89,4.06-1,5.76-3.34,1.08-3.34,1.08l-4.36-2.79s.92-4.71,2.57-5.33S33,17.19,33.89,18Z"></path><path class="cls-2" d="M10,19.89a11.55,11.55,0,0,1-.19-2.05"></path><path class="cls-3" d="M10.5,21.78c-.55-.38-1.08-.68-1.08-.68l-1,2.46.57.05Z"></path><path class="cls-3" d="M33,21.85c-.54-.41-1.05-.73-1.05-.73l-1.09,2.4.57.08Z"></path><path class="cls-3" d="M15.23,10.17C15,9.55,14.65,9,14.65,9l-2.09,1.6s.18.15.46.34Z"></path><path class="cls-3" d="M18.05,23.87c.56-.38,1-.77,1-.77l-2-1.77-.25.51Z"></path><path class="cls-3" d="M26.69,12.33c.56-.38,1-.77,1-.77L25.76,9.79s-.11.21-.25.51Z"></path><path class="cls-3" d="M24,32.17c.56-.38,1-.77,1-.77L23,29.62s-.11.21-.25.51Z"></path><line class="cls-2" x1="17.74" y1="10" x2="16.37" y2="10.43"></line><line class="cls-2" x1="24.69" y1="15.27" x2="26.4" y2="13.46"></line><line class="cls-2" x1="30.12" y1="18.49" x2="32.15" y2="20.43"></line></g></svg> 