<?xml version="1.0" encoding="UTF-8"?> <svg xmlns="http://www.w3.org/2000/svg" viewBox="0 0 41.21 41.83"><defs><style>.cls-1{fill:#56405b;}.cls-2{fill:none;stroke:#000;stroke-linecap:round;stroke-linejoin:round;stroke-width:0.69px;}.cls-3{fill:#c6db9c;}</style></defs><title>eggplant</title><g id="pop_up_dish" data-name="pop up dish"><path class="cls-1" d="M32.57,15.33s-4.87-6.25-9.39-2.51S14,20.1,12,20.19-.21,31.47,16,37,33.5,17.79,32.57,15.33Z"></path><path class="cls-2" d="M31.18,14.27S26.31,8,21.79,11.77,12.57,19,10.62,19.14-1.6,30.42,14.56,35.91,32.12,16.73,31.18,14.27Z"></path><path class="cls-2" d="M27.93,18.3s-3.05,12.18-9.48,13.44"></path><path class="cls-3" d="M31.79,4.9s.79-1.23,2.86.16.18,2.62.18,2.62l-2.7,3.12s3.42.78,3.88,2.14a3.85,3.85,0,0,0,2.2,2.18c.22,0-3.75-.25-5.85-2.07s-1.91,3-5.16,3.51c0,0,.3-1.69.55-2.87a3.37,3.37,0,0,0-.18-1.86,8.77,8.77,0,0,1-3.13-1.09s-1.33-1.36-2.28-1.29c0,0,5.5-1.85,7.89.9C30.05,10.35,29.9,10.37,31.79,4.9Z"></path><path class="cls-2" d="M30.75,4.38s.79-1.22,2.86.17.19,2.62.19,2.62l-2.71,3.11s3.42.79,3.88,2.14a3.88,3.88,0,0,0,2.2,2.19c.22,0-3.74-.25-5.85-2.08s-1.9,3-5.16,3.51c0,0,1.32-2.15.78-3a3.59,3.59,0,0,1-.16-2.33,5.56,5.56,0,0,1-3.37-.51s-1.34-1.35-2.29-1.28c0,0,5.5-1.85,7.9.89C29,9.83,28.87,9.85,30.75,4.38Z"></path></g></svg> 