<?xml version="1.0" encoding="UTF-8"?> <svg xmlns="http://www.w3.org/2000/svg" viewBox="0 0 41.21 41.83"><defs><style>.cls-1{fill:#e5e5e3;}.cls-2{fill:#e1e2de;}.cls-3,.cls-4{fill:none;stroke:#000;stroke-linecap:round;stroke-linejoin:round;}.cls-3{stroke-width:0.94px;}.cls-4{stroke-width:0.78px;}</style></defs><title>toppings icon set</title><g id="pop_up_dish" data-name="pop up dish"><path class="cls-1" d="M7.45,30S5.3,31.1,5.08,31.61s4.1,2.64,2.37,3.26-4.52,3.25-2.37,3.25,12.49-2.62,12-1,2.84,1.13,5,0,3.49-1.62,4.39-1.62,3.14-1.75,3.14-1.75Z"></path><path class="cls-2" d="M36.81,28.41l-1.3-9.36c0-2.79-6.16-5.05-13.76-5.05S8,16.26,8,19.05l-.84,8.8a2.72,2.72,0,0,0-.35,1.32c0,3.36,6.41,6.08,15.56,6.08s14.56-2.72,14.56-6.08A3.23,3.23,0,0,0,36.81,28.41Z"></path><path class="cls-3" d="M36,26.91l-1.3-9.36c0-2.79-6.16-5.05-13.76-5.05S7.18,14.76,7.18,17.55l-.84,8.8A2.76,2.76,0,0,0,6,27.67C6,31,12.4,33.75,21.55,33.75S36.11,31,36.11,27.67A3.23,3.23,0,0,0,36,26.91Z"></path><path class="cls-4" d="M34.71,17.55c0,2.8-6.16,5.06-13.76,5.06a32.88,32.88,0,0,1-7.7-.86"></path><line class="cls-4" x1="32.01" y1="22.61" x2="33" y2="31.61"></line><line class="cls-4" x1="28.76" y1="25.5" x2="29.6" y2="32.86"></line><line class="cls-4" x1="26.66" y1="33.43" x2="26.18" y2="27.79"></line><line class="cls-4" x1="9.32" y1="24.62" x2="8.76" y2="28.37"></line><path class="cls-2" d="M18.66,10.24l-.82,1.39.41,1s1.42.44,1.55,0,.38-1.2.38-1.2Z"></path><path class="cls-2" d="M23.58,6.93l-.3-1.59-1-.49s-1.35.61-1.16,1S21.65,7,21.65,7Z"></path><path class="cls-2" d="M22.64,9.59l-.41.7.2.5s.71.22.78,0,.19-.6.19-.6Z"></path><path class="cls-2" d="M20.08,3.23l-.3.5.15.37s.52.16.56,0l.14-.44Z"></path><path class="cls-2" d="M19.48,5.46l-.28-.52-.39-.06s-.4.36-.29.48l.3.35Z"></path><path class="cls-2" d="M18.88,1.66l-.29.5.15.37s.51.16.56,0,.13-.44.13-.44Z"></path><path class="cls-2" d="M17.92,7.11l.43,1,.7.17s.8-.59.61-.83-.5-.68-.5-.68Z"></path><path class="cls-2" d="M20.31,8.3,19.9,9l.2.5s.71.22.77,0,.19-.59.19-.59Z"></path></g></svg> 