<?xml version="1.0" encoding="UTF-8"?> <svg xmlns="http://www.w3.org/2000/svg" viewBox="0 0 41.21 41.83"><defs><style>.cls-1{fill:#e2ddd0;}.cls-2{fill:none;stroke:#000;stroke-linecap:round;stroke-linejoin:round;stroke-width:0.69px;}</style></defs><title>mushroom</title><g id="pop_up_dish" data-name="pop up dish"><path class="cls-1" d="M24.09,10.39v0l-.15,0-.15,0h0c-2-.22-13.43-1.24-13.69,4.95-.29,6.79,7.2.4,7.73,3.23s-3.42,6.25-3.31,8.67,1.17,4.3,5.54,4.92c4.32.93,6-.5,6.91-2.7s-1.57-6.81-.11-9.28,6.29,6.11,8.37-.36C37.12,13.86,26.06,10.87,24.09,10.39Z"></path><path class="cls-2" d="M23,9.18v0l-.15,0-.15,0v0c-2-.23-13.43-1.24-13.69,5-.29,6.79,7.21.4,7.73,3.23S13.31,23.55,13.42,26s1.17,4.3,5.55,4.92c4.32.93,6-.5,6.9-2.71s-1.57-6.8-.11-9.27,6.29,6.11,8.37-.36C36,12.65,25,9.66,23,9.18Z"></path><path class="cls-2" d="M21.75,22a25.68,25.68,0,0,1-2.08,6.59"></path></g></svg> 