<?xml version="1.0" encoding="UTF-8"?> <svg xmlns="http://www.w3.org/2000/svg" viewBox="0 0 41.21 41.83"><defs><style>.cls-1{fill:#f4efba;}.cls-2{fill:none;stroke:#000;stroke-linecap:round;stroke-linejoin:round;stroke-width:0.69px;}.cls-3{fill:#9ac093;}</style></defs><title>roasted pepper</title><g id="pop_up_dish" data-name="pop up dish"><path class="cls-1" d="M35.73,22a7.94,7.94,0,1,0-14.2-5.52,7.94,7.94,0,1,0,2.4,15.65A7.94,7.94,0,1,0,35.73,22ZM27.62,32.56a5.42,5.42,0,0,1-2.09-4,5.45,5.45,0,0,1-2.46,1.11,5.36,5.36,0,1,1,1.61-10,5.46,5.46,0,0,1-.59-3,5.37,5.37,0,1,1,9.6,3.75c-.09.12-.19.23-.29.34a5.35,5.35,0,0,1-3.52,1.73c0,.17.07.34.11.51a5.37,5.37,0,0,1,3.81.78l.36.25a5.37,5.37,0,0,1-6.54,8.52Z"></path><path class="cls-2" d="M35.62,21.29a7.94,7.94,0,1,0-14.21-5.52,7.94,7.94,0,1,0,2.41,15.65,7.94,7.94,0,1,0,11.8-10.13ZM27.51,31.84a5.18,5.18,0,0,1-1.28-1.41,5.4,5.4,0,0,1-.81-2.57,5.37,5.37,0,1,1-.85-8.92,5.37,5.37,0,1,1,9,.78c-.09.12-.19.23-.29.34a5.35,5.35,0,0,1-3.52,1.73c0,.17.07.34.1.51a5.38,5.38,0,0,1,3.82.78l.36.25a5.37,5.37,0,0,1-6.54,8.51Z"></path><path class="cls-3" d="M22.77,13.87A7.95,7.95,0,1,0,8.14,18.15,7.94,7.94,0,1,0,19.59,29.09a7.94,7.94,0,1,0,3.18-15.22Zm0,13.31a5.4,5.4,0,0,1-4.08-1.88,5.36,5.36,0,1,1-6.11-6.56,5.36,5.36,0,0,1-3.12-4.87,5.37,5.37,0,1,1,10.73,0c0,.15,0,.3,0,.44a5.31,5.31,0,0,1-1.73,3.52l.39.35a5.35,5.35,0,0,1,3.5-1.71l.44,0a5.37,5.37,0,1,1,0,10.73Z"></path><path class="cls-2" d="M22.25,13.37A7.95,7.95,0,1,0,7.62,17.66,7.94,7.94,0,1,0,19.07,28.6a7.95,7.95,0,1,0,3.18-15.23Zm0,13.32a5.47,5.47,0,0,1-4.09-1.89,5.26,5.26,0,0,1-1.27,2.37,5.36,5.36,0,1,1-4.83-8.93,5.4,5.4,0,0,1-3.13-4.87,5.37,5.37,0,0,1,10.74,0c0,.15,0,.3,0,.45a5.35,5.35,0,0,1-1.73,3.52l.39.34A5.3,5.3,0,0,1,21.8,16l.45,0a5.37,5.37,0,0,1,0,10.74Z"></path></g></svg> 