<?xml version="1.0" encoding="iso-8859-1"?>
<!-- Generator: Adobe Illustrator 16.0.0, SVG Export Plug-In . SVG Version: 6.00 Build 0)  -->
<!DOCTYPE svg PUBLIC "-//W3C//DTD SVG 1.1//EN" "http://www.w3.org/Graphics/SVG/1.1/DTD/svg11.dtd">
<svg version="1.1" id="Capa_1" xmlns="http://www.w3.org/2000/svg" xmlns:xlink="http://www.w3.org/1999/xlink" x="0px" y="0px"
	 width="32.527px" height="32.527px" viewBox="0 0 32.527 32.527" style="enable-background:new 0 0 32.527 32.527;"
	 xml:space="preserve">
<g>
	<path d="M18.765,0.499C18.765,0.223,18.541,0,18.266,0h-3.995c-0.275,0-0.499,0.223-0.499,0.499v2.41c0.767,0,4.45,0,4.992,0
		L18.765,0.499L18.765,0.499z"/>
	<g>
		<path d="M23.011,9.761l-4.106-6.007c-0.085-0.125-0.226-0.199-0.377-0.199H14c-0.151,0-0.292,0.074-0.377,0.199L9.518,9.761
			c-0.052,0.076-0.08,0.166-0.08,0.258v20.227c0,1.258,1.023,2.281,2.281,2.281h9.09c1.258,0,2.281-1.023,2.281-2.281V10.019
			C23.09,9.927,23.062,9.837,23.011,9.761z M14.241,4.467h4.046l3.892,5.692v4.003h-0.912H11.263H10.35V10.16L14.241,4.467z
			 M20.81,31.614h-9.09c-0.755,0-1.369-0.614-1.369-1.369v-8.099h0.912h10.003h0.912v8.099C22.178,31,21.563,31.614,20.81,31.614z"
			/>
		<polygon points="21.266,10.442 19.937,8.498 12.591,8.498 11.263,10.442 11.263,13.136 21.266,13.136 		"/>
		<path d="M11.263,30.245c0,0.252,0.205,0.456,0.456,0.456h9.09c0.252,0,0.456-0.205,0.456-0.456v-7.072H11.263V30.245z"/>
	</g>
</g>
<g>
</g>
<g>
</g>
<g>
</g>
<g>
</g>
<g>
</g>
<g>
</g>
<g>
</g>
<g>
</g>
<g>
</g>
<g>
</g>
<g>
</g>
<g>
</g>
<g>
</g>
<g>
</g>
<g>
</g>
</svg>
