<?xml version="1.0" encoding="iso-8859-1"?>
<!-- Generator: Adobe Illustrator 16.0.0, SVG Export Plug-In . SVG Version: 6.00 Build 0)  -->
<!DOCTYPE svg PUBLIC "-//W3C//DTD SVG 1.1//EN" "http://www.w3.org/Graphics/SVG/1.1/DTD/svg11.dtd">
<svg version="1.1" id="Capa_1" xmlns="http://www.w3.org/2000/svg" xmlns:xlink="http://www.w3.org/1999/xlink" x="0px" y="0px"
	 width="19.993px" height="19.993px" viewBox="0 0 19.993 19.993" style="enable-background:new 0 0 19.993 19.993;"
	 xml:space="preserve">
<g>
	<g>
		<g>
			<path d="M12.483,19.993L12.483,19.993H7.512c-0.158,0-0.303-0.065-0.408-0.185c-0.26-0.295-0.21-0.865-0.188-1.031
				c0.171-5.1-0.266-9.119-1.34-12.258C4.621,3.731,5.531,0.377,5.57,0.235L5.635,0h8.725l0.065,0.235
				c0.039,0.141,0.947,3.495-0.007,6.284c-1.073,3.139-1.512,7.158-1.338,12.288c0.02,0.137,0.069,0.707-0.19,1.002
				C12.785,19.928,12.642,19.993,12.483,19.993z M7.571,19.352h4.853c0.031-0.096,0.042-0.312,0.019-0.494
				c-0.179-5.237,0.27-9.333,1.37-12.546c0.752-2.198,0.236-4.872,0.052-5.669H6.129C5.947,1.44,5.432,4.117,6.183,6.311
				c1.1,3.214,1.549,7.309,1.372,12.517C7.53,19.034,7.54,19.255,7.571,19.352z"/>
		</g>
		<g>
			<path d="M11.43,10.038c0,0-0.001,0-0.002,0c-0.084,0-0.143,0.052-0.149,0.121c-0.004,0.036,0.006,0.071,0.029,0.101
				c0.022,0.029,0.055,0.047,0.092,0.051l0.016,0.002c0.07,0,0.128-0.053,0.137-0.123C11.56,10.114,11.504,10.047,11.43,10.038z"/>
			<path d="M11.021,11.375C11.02,11.375,11.02,11.375,11.021,11.375c-0.049,0-0.083,0.03-0.087,0.07
				c-0.005,0.043,0.025,0.082,0.069,0.087h0.01c0.04,0,0.073-0.03,0.078-0.07C11.095,11.419,11.063,11.38,11.021,11.375z"/>
			<path d="M10.689,10.454c0,0-0.001,0-0.002,0c-0.063,0-0.105,0.039-0.111,0.09c-0.006,0.056,0.034,0.106,0.09,0.113l0.013,0.001
				c0.052,0,0.095-0.039,0.101-0.092c0.003-0.026-0.005-0.053-0.021-0.074C10.74,10.47,10.717,10.457,10.689,10.454z"/>
			<path d="M10.859,9.312l0.019,0.001c0.084,0,0.155-0.063,0.164-0.147c0.006-0.044-0.008-0.087-0.034-0.122
				c-0.028-0.035-0.067-0.057-0.112-0.062c-0.001,0-0.002,0-0.003,0c-0.103,0-0.171,0.063-0.182,0.147
				C10.702,9.219,10.769,9.301,10.859,9.312z"/>
			<path d="M11.738,8.401c-0.001,0-0.002,0-0.003,0c-0.107,0-0.18,0.066-0.189,0.153c-0.006,0.047,0.008,0.092,0.036,0.128
				c0.029,0.036,0.07,0.059,0.116,0.064l0.021,0.001c0.088,0,0.163-0.066,0.172-0.154c0.005-0.046-0.008-0.092-0.037-0.128
				C11.825,8.429,11.784,8.406,11.738,8.401z"/>
			<path d="M13.545,6.088c-0.637,0.036-1.394-0.044-2.292-0.315C9.183,5.149,7.521,5.25,6.295,5.52
				c0.051,0.233,0.113,0.463,0.19,0.688C7.599,9.46,8.053,13.591,7.875,18.84L7.87,18.9c-0.005,0.041-0.008,0.086-0.009,0.132h4.272
				c-0.001-0.048-0.005-0.095-0.01-0.132l-0.005-0.061c-0.177-5.25,0.278-9.381,1.391-12.633
				C13.522,6.168,13.532,6.128,13.545,6.088z M11.09,7.398c0.093,0.015,0.174,0.065,0.229,0.141
				c0.055,0.076,0.078,0.169,0.063,0.262c-0.028,0.173-0.175,0.298-0.349,0.298c-0.018,0-0.037-0.002-0.055-0.004
				c-0.193-0.031-0.324-0.212-0.294-0.404C10.717,7.501,10.894,7.368,11.09,7.398z M10.913,8.823
				c0.086,0.009,0.164,0.052,0.219,0.12c0.054,0.068,0.078,0.153,0.068,0.24c-0.018,0.165-0.158,0.29-0.323,0.29
				c-0.012,0-0.024-0.001-0.036-0.002c-0.18-0.02-0.309-0.181-0.288-0.36C10.573,8.933,10.732,8.8,10.913,8.823z M10.648,10.816
				c-0.143-0.017-0.247-0.146-0.231-0.291c0.017-0.143,0.148-0.248,0.29-0.23c0.069,0.008,0.133,0.042,0.177,0.096
				c0.044,0.055,0.063,0.123,0.056,0.193c-0.015,0.133-0.127,0.232-0.26,0.232C10.668,10.816,10.658,10.816,10.648,10.816z
				 M11.012,11.693l-0.027-0.002c-0.131-0.015-0.226-0.133-0.211-0.265c0.013-0.12,0.116-0.213,0.238-0.213l0.026,0.002
				c0.131,0.015,0.227,0.134,0.211,0.265C11.235,11.602,11.134,11.693,11.012,11.693z M11.415,10.473
				c-0.011,0-0.021-0.002-0.033-0.003c-0.079-0.008-0.15-0.048-0.199-0.11c-0.049-0.062-0.072-0.14-0.063-0.219
				c0.019-0.161,0.163-0.28,0.328-0.262c0.163,0.018,0.281,0.166,0.263,0.328C11.693,10.357,11.566,10.473,11.415,10.473z
				 M11.72,8.908c-0.014,0-0.025-0.001-0.038-0.002c-0.088-0.01-0.168-0.053-0.225-0.123c-0.056-0.07-0.081-0.157-0.07-0.246
				c0.02-0.182,0.187-0.318,0.369-0.295c0.088,0.01,0.168,0.053,0.224,0.123c0.056,0.07,0.081,0.157,0.071,0.246
				C12.032,8.78,11.89,8.908,11.72,8.908z M11.752,7.26c-0.013,0-0.025-0.001-0.04-0.003c-0.094-0.01-0.178-0.057-0.236-0.131
				c-0.06-0.074-0.086-0.165-0.075-0.259c0.022-0.193,0.194-0.336,0.391-0.313c0.095,0.01,0.179,0.057,0.237,0.13
				c0.059,0.074,0.086,0.167,0.075,0.261C12.084,7.124,11.934,7.26,11.752,7.26z"/>
			<path d="M11.004,7.936c0.106,0.017,0.203-0.056,0.221-0.159c0.008-0.051-0.004-0.102-0.034-0.143
				c-0.03-0.042-0.075-0.069-0.125-0.077c-0.01-0.002-0.021-0.003-0.03-0.003c-0.095,0-0.175,0.068-0.189,0.162
				C10.827,7.821,10.899,7.919,11.004,7.936z"/>
			<path d="M11.773,6.713c-0.007,0-0.014-0.001-0.022-0.001c-0.099,0-0.181,0.074-0.191,0.173c-0.006,0.051,0.009,0.101,0.042,0.142
				c0.032,0.04,0.078,0.066,0.13,0.072c0.111,0.01,0.202-0.066,0.214-0.171c0.005-0.052-0.01-0.103-0.042-0.143
				C11.871,6.744,11.825,6.719,11.773,6.713z"/>
		</g>
	</g>
</g>
<g>
</g>
<g>
</g>
<g>
</g>
<g>
</g>
<g>
</g>
<g>
</g>
<g>
</g>
<g>
</g>
<g>
</g>
<g>
</g>
<g>
</g>
<g>
</g>
<g>
</g>
<g>
</g>
<g>
</g>
</svg>
