<?xml version="1.0" encoding="UTF-8"?> <svg xmlns="http://www.w3.org/2000/svg" viewBox="0 0 41.21 41.83"><defs><style>.cls-1{fill:#ceb8d1;}.cls-2{fill:none;stroke:#000;stroke-linecap:round;stroke-linejoin:round;stroke-width:0.69px;}</style></defs><title>red onion</title><g id="pop_up_dish" data-name="pop up dish"><path class="cls-1" d="M11.48,17.14a8.18,8.18,0,0,1-.7-3.1,8.42,8.42,0,0,1,16.83-.64l1.81-.31A10.25,10.25,0,1,0,9.8,17.88Z"></path><path class="cls-1" d="M27.29,13.48A10.2,10.2,0,0,0,22,14.94l1.45,1.29a8.42,8.42,0,1,1,7.27,15.18l.53,1.78a10.26,10.26,0,0,0-4-19.71Z"></path><path class="cls-1" d="M18.43,17.58A11.27,11.27,0,1,0,29.69,28.84,11.27,11.27,0,0,0,18.43,17.58Zm0,20.52a9.26,9.26,0,1,1,9.25-9.26A9.26,9.26,0,0,1,18.43,38.1Z"></path><path class="cls-2" d="M18,16.76A11.27,11.27,0,1,0,29.31,28,11.26,11.26,0,0,0,18,16.76Z"></path><path class="cls-2" d="M24,17.32A6.94,6.94,0,1,1,29.88,29.8"></path><path class="cls-2" d="M27.85,12.86a9.59,9.59,0,1,0-17.59,6"></path><line class="cls-2" x1="9.57" y1="29.87" x2="8.56" y2="30.4"></line><line class="cls-2" x1="9.98" y1="31.42" x2="9.08" y2="31.99"></line><line class="cls-2" x1="10.75" y1="33.16" x2="9.94" y2="33.71"></line><line class="cls-2" x1="24.41" y1="6.22" x2="23.75" y2="6.94"></line><line class="cls-2" x1="25.35" y1="7.12" x2="24.69" y2="7.83"></line><line class="cls-2" x1="26.66" y1="8.94" x2="25.71" y2="9.23"></line><line class="cls-2" x1="35.24" y1="17.58" x2="34.22" y2="18.17"></line><line class="cls-2" x1="36.82" y1="18.77" x2="35.24" y2="19.59"></line></g></svg> 